# xmcd
#
# Track frame offsets: 
#        150
#        12370
#        24292
#        36175
#        52055
#        61512
#        72767
#        86642
#        105387
#        121967
#        133667
#        146610
#        161275
#        171492
#        188550
#        200575
#        214030
#        224500
#        236875
#        250970
#        268882
#        274850
#        285842
#        295465
#        311325
#
# Disc length: 4368 seconds
#
# Revision: 2
# Processed by: cddbd v1.5.2PL0 Copyright (c) Steve Scherf et al.
# Submitted via: ExactAudioCopy v1.3
#
DISCID=76110e19
DTITLE=Varios - Caipira - Raizes e Frutos
DYEAR=1998
DGENRE=Country
TTITLE0=Mineiro e Manduzinho - Bombardeio
TTITLE1=Mineiro e Manduzinho - Rio Pequeno
TTITLE2=Mineiro e Manduzinho - Rei Do Gado
TTITLE3=Mineiro e Manduzinho - Situacao Encrencada
TTITLE4=Mineiro, Manduzinho, Adauto Santos e Joao Pacifico - Toada De 
TTITLE4=Mutirao (Paulista)(recolhido por Cornelio Pires)
TTITLE5=Joao Pacifico, Mineiro e Manduzinho - Estoria De Um Prego
TTITLE6=Mineiro, Manduzinho e Joao Pacifico - Besta Ruana
TTITLE7=Joao Pacifico, Mineiro e Manduzinho - Couro De Boi
TTITLE8=Pedro Chiquito - Carreira Do Divino
TTITLE9=Mineiro e Manduzinho - Moda Da Revolucao (moda de viola sobre 
TTITLE9=a rebeliao paulista, 1924)
TTITLE10=Mineiro e Manduzinho - A Morte De Joao Pessoa
TTITLE11=Mineiro e Manduzinho - Violeiro Solteiro
TTITLE12=Mineiro e Manduzinho - Barra Pesada
TTITLE13=Mineiro e Manduzinho - Cruel Destino
TTITLE14=Mineiro e Manduzinho - Pagode
TTITLE15=Mineiro e Manduzinho - Rio De Lagrimas
TTITLE16=Solange Maria - Viola Quebrada
TTITLE17=Toninho Cafe, Adauto Santos, e Solange Maria - Ituverava
TTITLE18=Solange Maria e Adauto Santos - Triste Berrante
TTITLE19=Solange Maria e Adauto Santos - La Na Roca
TTITLE20=Grupo Boca Livre - Ponta de Areia
TTITLE21=Toninho Cafe - Reciclagem
TTITLE22=Solange Maria e Adauto Santos - Seu Eu Fosse Teu Patrao
TTITLE23=Adauto Santos - Romaria
TTITLE24=Paulinho Nogueira - Disparada
EXTD=
EXTT0=
EXTT1=
EXTT2=
EXTT3=
EXTT4=
EXTT5=
EXTT6=
EXTT7=
EXTT8=
EXTT9=
EXTT10=
EXTT11=
EXTT12=
EXTT13=
EXTT14=
EXTT15=
EXTT16=
EXTT17=
EXTT18=
EXTT19=
EXTT20=
EXTT21=
EXTT22=
EXTT23=
EXTT24=
PLAYORDER=
